<svg width="145" height="39" viewBox="0 0 145 39" fill="none" xmlns="http://www.w3.org/2000/svg">
<path d="M10.296 31.33C8.382 31.33 6.776 31.044 5.478 30.472C4.18 29.878 3.179 29.119 2.475 28.195C1.793 27.249 1.43 26.248 1.386 25.192C1.386 25.016 1.452 24.862 1.584 24.73C1.738 24.576 1.914 24.499 2.112 24.499H3.795C4.059 24.499 4.257 24.565 4.389 24.697C4.521 24.829 4.609 24.983 4.653 25.159C4.763 25.687 5.027 26.215 5.445 26.743C5.885 27.249 6.49 27.678 7.26 28.03C8.052 28.36 9.064 28.525 10.296 28.525C12.188 28.525 13.574 28.195 14.454 27.535C15.356 26.853 15.807 25.951 15.807 24.829C15.807 24.059 15.565 23.443 15.081 22.981C14.619 22.497 13.904 22.068 12.936 21.694C11.968 21.32 10.714 20.913 9.174 20.473C7.568 20.011 6.237 19.505 5.181 18.955C4.125 18.405 3.333 17.723 2.805 16.909C2.299 16.095 2.046 15.061 2.046 13.807C2.046 12.619 2.365 11.563 3.003 10.639C3.641 9.693 4.554 8.945 5.742 8.395C6.952 7.845 8.415 7.57 10.131 7.57C11.495 7.57 12.683 7.757 13.695 8.131C14.729 8.483 15.587 8.967 16.269 9.583C16.951 10.177 17.468 10.826 17.82 11.53C18.172 12.212 18.359 12.883 18.381 13.543C18.381 13.697 18.326 13.851 18.216 14.005C18.106 14.137 17.93 14.203 17.688 14.203H15.939C15.785 14.203 15.62 14.159 15.444 14.071C15.29 13.983 15.169 13.818 15.081 13.576C14.949 12.674 14.443 11.915 13.563 11.299C12.683 10.683 11.539 10.375 10.131 10.375C8.701 10.375 7.535 10.65 6.633 11.2C5.753 11.75 5.313 12.608 5.313 13.774C5.313 14.522 5.522 15.149 5.94 15.655C6.358 16.139 7.018 16.568 7.92 16.942C8.822 17.316 9.999 17.712 11.451 18.13C13.211 18.614 14.652 19.131 15.774 19.681C16.896 20.209 17.721 20.88 18.249 21.694C18.799 22.486 19.074 23.509 19.074 24.763C19.074 26.149 18.711 27.337 17.985 28.327C17.259 29.295 16.236 30.043 14.916 30.571C13.618 31.077 12.078 31.33 10.296 31.33ZM24.1583 31C23.9163 31 23.7293 30.934 23.5973 30.802C23.4653 30.648 23.3993 30.461 23.3993 30.241V8.692C23.3993 8.45 23.4653 8.263 23.5973 8.131C23.7293 7.977 23.9163 7.9 24.1583 7.9H25.8413C26.0833 7.9 26.2703 7.977 26.4023 8.131C26.5563 8.263 26.6333 8.45 26.6333 8.692V17.8H37.9853V8.692C37.9853 8.45 38.0513 8.263 38.1833 8.131C38.3373 7.977 38.5243 7.9 38.7443 7.9H40.4273C40.6693 7.9 40.8563 7.977 40.9883 8.131C41.1423 8.263 41.2193 8.45 41.2193 8.692V30.241C41.2193 30.461 41.1423 30.648 40.9883 30.802C40.8563 30.934 40.6693 31 40.4273 31H38.7443C38.5243 31 38.3373 30.934 38.1833 30.802C38.0513 30.648 37.9853 30.461 37.9853 30.241V20.77H26.6333V30.241C26.6333 30.461 26.5563 30.648 26.4023 30.802C26.2703 30.934 26.0833 31 25.8413 31H24.1583ZM50.8187 31C50.5327 31 50.3017 30.923 50.1257 30.769C49.9717 30.615 49.8617 30.395 49.7957 30.109L45.5387 8.923C45.5167 8.835 45.5057 8.758 45.5057 8.692C45.5057 8.626 45.5057 8.582 45.5057 8.56C45.5057 8.384 45.5717 8.23 45.7037 8.098C45.8357 7.966 45.9897 7.9 46.1657 7.9H47.8817C48.3437 7.9 48.6077 8.087 48.6737 8.461L52.0397 25.489L55.6037 13.807C55.6697 13.609 55.7797 13.433 55.9337 13.279C56.1097 13.103 56.3517 13.015 56.6597 13.015H57.8807C58.2107 13.015 58.4527 13.103 58.6067 13.279C58.7607 13.433 58.8597 13.609 58.9037 13.807L62.5007 25.489L65.8337 8.461C65.8997 8.087 66.1747 7.9 66.6587 7.9H68.3747C68.5507 7.9 68.7047 7.966 68.8367 8.098C68.9687 8.23 69.0347 8.384 69.0347 8.56C69.0347 8.582 69.0237 8.626 69.0017 8.692C69.0017 8.758 69.0017 8.835 69.0017 8.923L64.7447 30.109C64.6787 30.395 64.5577 30.615 64.3817 30.769C64.2277 30.923 64.0077 31 63.7217 31H62.4347C62.1267 31 61.8847 30.923 61.7087 30.769C61.5327 30.615 61.4117 30.417 61.3457 30.175L57.2537 17.602L53.1947 30.175C53.1067 30.417 52.9747 30.615 52.7987 30.769C52.6447 30.923 52.4137 31 52.1057 31H50.8187ZM74.1095 31C73.8675 31 73.6805 30.934 73.5485 30.802C73.4165 30.648 73.3505 30.461 73.3505 30.241V8.692C73.3505 8.45 73.4165 8.263 73.5485 8.131C73.6805 7.977 73.8675 7.9 74.1095 7.9H87.7385C87.9805 7.9 88.1675 7.977 88.2995 8.131C88.4315 8.263 88.4975 8.45 88.4975 8.692V9.946C88.4975 10.188 88.4315 10.375 88.2995 10.507C88.1675 10.639 87.9805 10.705 87.7385 10.705H76.5185V17.932H87.0125C87.2545 17.932 87.4415 18.009 87.5735 18.163C87.7055 18.295 87.7715 18.482 87.7715 18.724V19.945C87.7715 20.165 87.7055 20.352 87.5735 20.506C87.4415 20.638 87.2545 20.704 87.0125 20.704H76.5185V28.195H88.0025C88.2445 28.195 88.4315 28.261 88.5635 28.393C88.6955 28.525 88.7615 28.712 88.7615 28.954V30.241C88.7615 30.461 88.6955 30.648 88.5635 30.802C88.4315 30.934 88.2445 31 88.0025 31H74.1095ZM123.298 31C123.122 31 122.968 30.934 122.836 30.802C122.704 30.67 122.638 30.516 122.638 30.34C122.638 30.23 122.649 30.109 122.671 29.977L130.855 8.626C130.943 8.406 131.064 8.23 131.218 8.098C131.372 7.966 131.603 7.9 131.911 7.9H134.155C134.441 7.9 134.661 7.966 134.815 8.098C134.991 8.23 135.123 8.406 135.211 8.626L143.362 29.977C143.406 30.109 143.428 30.23 143.428 30.34C143.428 30.516 143.362 30.67 143.23 30.802C143.098 30.934 142.944 31 142.768 31H141.085C140.821 31 140.623 30.934 140.491 30.802C140.381 30.67 140.304 30.549 140.26 30.439L138.445 25.753H127.621L125.806 30.439C125.784 30.549 125.707 30.67 125.575 30.802C125.443 30.934 125.245 31 124.981 31H123.298ZM128.578 22.915H137.488L133.033 11.2L128.578 22.915Z" fill="white"/>
<path d="M101.71 7.04999C101.27 7.04999 100.93 7.10999 100.68 7.23999C100.45 7.35999 100.29 7.64999 100.18 8.07999C100.1 8.51999 100.06 9.20999 100.06 10.17V13.23C100.06 14.02 99.94 14.71 99.68 15.29C99.45 15.85 99.18 16.31 98.87 16.66C98.56 17.01 98.27 17.28 97.99 17.47C98.22 17.64 98.49 17.9 98.8 18.25C99.13 18.58 99.42 19 99.68 19.5C99.93 19.98 100.06 20.52 100.06 21.12V24.87C100.06 25.81 100.1 26.49 100.18 26.93C100.28 27.37 100.45 27.65 100.68 27.77C100.93 27.89 101.27 27.96 101.71 27.96H102.87V31.77H100.4C99.82 31.77 99.23 31.76 98.65 31.74C98.09 31.72 97.57 31.6 97.09 31.4C96.61 31.21 96.22 30.85 95.93 30.31C95.66 29.79 95.52 29.03 95.52 28.03V22.88C95.52 22.26 95.43 21.67 95.24 21.13C95.05 20.57 94.77 20.11 94.4 19.76C94.03 19.41 93.56 19.23 93 19.23V15.61C93.56 15.59 94.03 15.41 94.4 15.08C94.78 14.73 95.06 14.28 95.24 13.74C95.43 13.18 95.52 12.59 95.52 11.96V7.02999C95.52 6.02999 95.66 5.26999 95.93 4.74999C96.2 4.22999 96.57 3.86999 97.02 3.65999C97.5 3.44999 98.03 3.33999 98.61 3.31999C99.19 3.27999 99.79 3.25999 100.39 3.25999H102.86V7.06999H101.7L101.71 7.04999Z" fill="#986DFF"/>
<path d="M112.24 27.72C112.68 27.72 113.02 27.66 113.27 27.53C113.5 27.41 113.66 27.12 113.77 26.69C113.85 26.25 113.89 25.56 113.89 24.6V21.54C113.89 20.75 114.01 20.06 114.27 19.48C114.5 18.92 114.77 18.46 115.08 18.11C115.39 17.76 115.68 17.49 115.96 17.3C115.73 17.13 115.46 16.87 115.15 16.52C114.82 16.19 114.53 15.77 114.27 15.27C114.02 14.79 113.89 14.25 113.89 13.65V9.9C113.89 8.96 113.85 8.28 113.77 7.84C113.67 7.4 113.5 7.12 113.27 7C113.02 6.88 112.68 6.81 112.24 6.81H111.08V3H113.55C114.13 3 114.72 3.01 115.3 3.03C115.86 3.05 116.38 3.17 116.86 3.37C117.34 3.56 117.73 3.92 118.02 4.46C118.29 4.98 118.43 5.74 118.43 6.74V11.89C118.43 12.51 118.52 13.1 118.71 13.64C118.9 14.2 119.18 14.66 119.55 15.01C119.92 15.36 120.39 15.54 120.95 15.54V19.16C120.39 19.18 119.92 19.36 119.55 19.69C119.17 20.04 118.89 20.49 118.71 21.03C118.52 21.59 118.43 22.18 118.43 22.81V27.74C118.43 28.74 118.29 29.5 118.02 30.02C117.75 30.54 117.38 30.9 116.93 31.11C116.45 31.32 115.92 31.43 115.34 31.45C114.76 31.49 114.16 31.51 113.56 31.51H111.09V27.7H112.25L112.24 27.72Z" fill="#986DFF"/>
</svg>
