<?xml version="1.0" encoding="utf-8"?>
<!-- Generator: Adobe Illustrator 27.3.1, SVG Export Plug-In . SVG Version: 6.00 Build 0)  -->
<svg version="1.1" id="Layer_1" xmlns="http://www.w3.org/2000/svg" xmlns:xlink="http://www.w3.org/1999/xlink" x="0px" y="0px"
	 viewBox="0 0 124 124" style="enable-background:new 0 0 124 124;" xml:space="preserve">
<style type="text/css">
	.st0{fill:#0E091B;}
	.st1{clip-path:url(#SVGID_00000174595984243589945440000008277599686922616219_);}
	.st2{fill:#986DFF;}
</style>
<path class="st0" d="M6,0h112c3.3,0,6,2.7,6,6v112c0,3.3-2.7,6-6,6H6c-3.3,0-6-2.7-6-6V6C0,2.7,2.7,0,6,0z"/>
<g>
	<defs>
		<rect id="SVGID_1_" x="22" y="26" width="80" height="72.8"/>
	</defs>
	<clipPath id="SVGID_00000018218710040606068170000017745844522017417406_">
		<use xlink:href="#SVGID_1_"  style="overflow:visible;"/>
	</clipPath>
	<g style="clip-path:url(#SVGID_00000018218710040606068170000017745844522017417406_);">
		<path class="st2" d="M44,36.1c-1.1,0-1.9,0.2-2.6,0.5c-0.6,0.3-1,1-1.2,2.1c-0.2,1.1-0.3,2.8-0.3,5.2v7.6c0,2-0.3,3.7-0.9,5.1
			c-0.6,1.4-1.2,2.5-2,3.4c-0.8,0.9-1.5,1.6-2.2,2c0.6,0.4,1.2,1.1,2,1.9c0.8,0.8,1.6,1.9,2.2,3.1c0.6,1.2,0.9,2.5,0.9,4v9.3
			c0,2.3,0.1,4,0.3,5.1c0.3,1.1,0.7,1.8,1.2,2.1c0.6,0.3,1.5,0.5,2.6,0.5h2.9v9.5h-6.1c-1.4,0-2.9,0-4.3-0.1
			c-1.4-0.1-2.7-0.3-3.9-0.9c-1.2-0.5-2.1-1.4-2.9-2.7c-0.7-1.3-1-3.2-1-5.7V75.5c0-2.3-0.5-4.4-1.6-6.2c-1-1.9-2.6-2.8-4.7-2.9v-9
			c2.1-0.1,3.7-1,4.7-2.8c1-1.8,1.6-3.9,1.6-6.3V36c0-2.5,0.3-4.4,1-5.7c0.7-1.3,1.6-2.2,2.7-2.7c1.2-0.5,2.5-0.8,4-0.9
			c1.4-0.1,2.9-0.2,4.4-0.2h6.1v9.5H44z M73.7,88.4c1.1,0,1.9-0.2,2.6-0.5c0.6-0.3,1-1,1.2-2.1c0.2-1.1,0.3-2.8,0.3-5.2v-7.6
			c0-2,0.3-3.7,0.9-5.1c0.6-1.4,1.2-2.5,2-3.4c0.8-0.9,1.5-1.6,2.2-2c-0.6-0.4-1.2-1.1-2-1.9c-0.8-0.8-1.6-1.9-2.2-3.1
			c-0.6-1.2-0.9-2.5-0.9-4v-9.3c0-2.3-0.1-4-0.3-5.1c-0.3-1.1-0.7-1.8-1.2-2.1c-0.6-0.3-1.5-0.5-2.6-0.5h-2.9v-9.5H77
			c1.4,0,2.9,0,4.3,0.1c1.4,0.1,2.7,0.3,3.9,0.9c1.2,0.5,2.1,1.4,2.9,2.7c0.7,1.3,1,3.2,1,5.7v12.8c0,2.3,0.5,4.4,1.6,6.2
			c1,1.9,2.6,2.8,4.7,2.9v9c-2.1,0.1-3.7,1-4.7,2.8c-1,1.8-1.6,3.9-1.6,6.3v12.3c0,2.5-0.3,4.4-1,5.7c-0.7,1.3-1.6,2.2-2.7,2.7
			c-1.2,0.5-2.5,0.8-4,0.9c-1.4,0.1-2.9,0.2-4.4,0.2h-6.1v-9.5H73.7z"/>
	</g>
</g>
</svg>
