<?xml version="1.0" encoding="utf-8"?>
<!-- Generator: Adobe Illustrator 27.3.1, SVG Export Plug-In . SVG Version: 6.00 Build 0)  -->
<svg version="1.1" id="Layer_1" xmlns="http://www.w3.org/2000/svg" xmlns:xlink="http://www.w3.org/1999/xlink" x="0px" y="0px"
	 viewBox="0 0 662 651" style="enable-background:new 0 0 662 651;" xml:space="preserve">
<style type="text/css">
	.st0{fill:url(#SVGID_1_);}
</style>
<linearGradient id="SVGID_1_" gradientUnits="userSpaceOnUse" x1="468.3806" y1="558.282" x2="484.2949" y2="8.9356" gradientTransform="matrix(-1 0 0 -1 836.4 635.973)">
	<stop  offset="0" style="stop-color:#986DFF"/>
	<stop  offset="1" style="stop-color:#986DFF;stop-opacity:0"/>
</linearGradient>
<path class="st0" d="M208.6,121.2l-0.9-1.8l0,0l0,0L208.6,121.2z M199,137.4l-1.9-0.5l0,0l0,0L199,137.4z M189.4,276l-1.8-0.8l0,0
	l0,0L189.4,276z M173.8,302.4l-1.5-1.3l0,0L173.8,302.4z M157,318l-1.1-1.6l-2.3,1.6l2.3,1.7L157,318z M172.6,333l-1.5,1.3l0,0l0,0
	L172.6,333z M189.4,357l-1.8,0.9l0,0l0,0L189.4,357z M199,499.8l-2,0.4l0,0l0,0L199,499.8z M208.6,516l-1,1.8l0,0l0,0L208.6,516z
	 M250.6,519.6h2v-2h-2V519.6z M250.6,592.8v2h2v-2H250.6z M169.6,592.2l-0.1,2h0L169.6,592.2z M139.6,585.6l0.8-1.8l0,0l0,0
	L139.6,585.6z M117.4,564.6l-1.8,0.9l0,0l0,0L117.4,564.6z M104.2,388.2l-1.9,0.6l0,0l0,0L104.2,388.2z M88,361.8l1.4-1.5l0,0
	L88,361.8z M61,351.6h-2v2h2V351.6z M61,282l-0.1-2l-1.9,0.1v1.9H61z M88,271.8l1.3,1.5l0,0l0,0L88,271.8z M104.2,246l1.9,0.7l0,0
	l0,0L104.2,246z M117.4,73.2l-1.8-0.9l0,0L117.4,73.2z M138.4,52.2l-0.8-1.8l0,0l0,0L138.4,52.2z M169,45.6l0.1,2l0,0l0,0L169,45.6z
	 M250.6,44.4h2v-2h-2V44.4z M250.6,117.6v2h2v-2H250.6z M228.4,115.6c-8.6,0-15.5,1.2-20.7,3.8l1.8,3.6c4.4-2.2,10.7-3.4,18.9-3.4
	V115.6z M207.6,119.4c-5.2,2.8-8.5,8.9-10.6,17.5l3.9,0.9c2-8.2,5-12.9,8.6-14.9L207.6,119.4z M197,137c-1.6,8.6-2.4,22.2-2.4,40.6
	h4c0-18.4,0.8-31.6,2.4-39.8L197,137z M194.6,177.6v58.8h4v-58.8H194.6z M194.6,236.4c0,15-2.4,27.9-7,38.8l3.7,1.6
	c4.9-11.5,7.4-25,7.4-40.4H194.6z M187.5,275.2c-4.3,10.6-9.4,19.2-15.2,25.8l3,2.6c6.2-7,11.5-16,16-27L187.5,275.2z M172.3,301.1
	c-5.9,6.7-11.4,11.8-16.4,15.3l2.3,3.3c5.4-3.7,11.1-9,17.2-15.9L172.3,301.1z M155.8,319.6c4.2,3.1,9.3,8,15.3,14.7l3-2.6
	c-6-6.8-11.4-12-15.9-15.3L155.8,319.6z M171.2,334.4c6.2,6.2,11.7,14,16.4,23.5l3.6-1.8c-4.9-9.8-10.6-17.9-17.2-24.5L171.2,334.4z
	 M187.6,357.9c4.6,8.9,7,19,7,30.3h4c0-11.9-2.5-22.6-7.4-32.1L187.6,357.9z M194.6,388.2v72h4v-72H194.6z M194.6,460.2
	c0,18,0.8,31.4,2.4,40l3.9-0.7c-1.6-8.2-2.4-21.2-2.4-39.2H194.6z M197.1,500.3c2,8.6,5.4,14.7,10.6,17.5l1.9-3.5
	c-3.6-2-6.7-6.7-8.6-14.9L197.1,500.3z M207.7,517.8c5.2,2.6,12.1,3.8,20.7,3.8v-4c-8.2,0-14.5-1.2-18.9-3.4L207.7,517.8z
	 M228.4,521.6h22.2v-4h-22.2V521.6z M248.6,519.6v73.2h4v-73.2H248.6z M250.6,590.8h-47.4v4h47.4V590.8z M203.2,590.8
	c-11.2,0-22.4-0.2-33.5-0.6l-0.1,4c11.2,0.4,22.4,0.6,33.7,0.6V590.8z M169.7,590.2c-10.6-0.4-20.3-2.5-29.3-6.4l-1.6,3.7
	c9.4,4.1,19.7,6.4,30.7,6.8L169.7,590.2z M140.3,583.7c-8.7-3.4-15.7-10-21.2-20.1l-3.5,1.9c5.8,10.7,13.5,18.1,23.2,21.9
	L140.3,583.7z M119.2,563.7c-5-9.6-7.6-23.8-7.6-42.9h-4c0,19.3,2.6,34.3,8,44.7L119.2,563.7z M111.6,520.8v-99h-4v99H111.6z
	 M111.6,421.8c0-12.2-1.8-23.6-5.5-34.3l-3.8,1.3c3.5,10.2,5.3,21.1,5.3,32.9H111.6z M106.1,387.6c-3.7-11.1-9.3-20.2-16.7-27.2
	l-2.7,2.9c6.9,6.5,12.2,15,15.7,25.6L106.1,387.6z M89.4,360.3c-7.6-7.2-17.1-10.7-28.4-10.7v4c10.3,0,18.8,3.2,25.6,9.7L89.4,360.3
	z M63,351.6V282h-4v69.6H63z M61.1,284c11.2-0.4,20.7-4,28.3-10.7l-2.7-3c-6.8,6.1-15.3,9.3-25.7,9.7L61.1,284z M89.4,273.3
	c7.5-7,13-15.9,16.7-26.6l-3.8-1.3c-3.5,10.1-8.7,18.4-15.7,25L89.4,273.3z M106.1,246.6c3.7-11,5.5-22.6,5.5-34.8h-4
	c0,11.8-1.8,23-5.3,33.6L106.1,246.6z M111.6,211.8V117h-4v94.8H111.6z M111.6,117c0-19.1,2.6-33.3,7.6-42.9l-3.5-1.8
	c-5.4,10.4-8,25.4-8,44.7H111.6z M119.2,74.1c5-9.7,11.7-16.3,20.1-20.1l-1.7-3.6c-9.3,4.2-16.6,11.6-21.9,21.9L119.2,74.1z
	 M139.2,54c8.9-3.9,18.9-6,29.9-6.4l-0.1-4c-11.4,0.4-21.9,2.7-31.3,6.8L139.2,54z M169.1,47.6c11.2-0.8,22.5-1.2,34.1-1.2v-4
	c-11.6,0-23.1,0.4-34.3,1.2L169.1,47.6z M203.2,46.4h47.4v-4h-47.4V46.4z M248.6,44.4v73.2h4V44.4H248.6z M250.6,115.6h-22.2v4h22.2
	V115.6z M660.7,438l-1.9-0.5l0,0l0,0L660.7,438z M653.5,532.8l-1.8-1l0,0L653.5,532.8z M604.9,601.8l-0.8,1.8l1.3,0.6l1-1
	L604.9,601.8z M535.9,570l-1.5-1.3l-1.7,2l2.4,1.1L535.9,570z M577.9,506.4l-1.8-0.9l0,0L577.9,506.4z M607.3,424.8l1.9,0.5l0,0
	L607.3,424.8z M607.3,222.6l-1.9,0.5l0,0L607.3,222.6z M577.9,140.4l-1.8,0.9l0,0L577.9,140.4z M604.9,45l1.4-1.4l-1-1l-1.3,0.6
	L604.9,45z M660.7,209.4l-1.9,0.5l0,0l0,0L660.7,209.4z M435.4,515.4l0.9,1.8l0,0l0,0L435.4,515.4z M445,499.2l1.9,0.5l0,0l0,0
	L445,499.2z M454.6,360.6l1.8,0.8l0,0l0,0L454.6,360.6z M470.2,334.2l1.5,1.3l0,0L470.2,334.2z M487,318.6l1.1,1.6l2.3-1.6l-2.3-1.7
	L487,318.6z M471.4,303.6l1.5-1.3l0,0l0,0L471.4,303.6z M454.6,279.6l1.8-0.9l0,0l0,0L454.6,279.6z M445,136.8l2-0.4l0,0l0,0
	L445,136.8z M435.4,120.6l1-1.8l0,0l0,0L435.4,120.6z M393.4,117h-2v2h2V117z M504.4,51l-0.8,1.8l0,0l0,0L504.4,51z M526.6,72
	l1.8-0.9l0,0l0,0L526.6,72z M539.8,248.4l1.9-0.6l0,0l0,0L539.8,248.4z M556,274.8l-1.4,1.5l0,0L556,274.8z M583,285h2v-2h-2V285z
	 M583,354.6l0.1,2l1.9-0.1v-1.9H583z M556,364.8l-1.3-1.5l0,0l0,0L556,364.8z M539.8,390.6l-1.9-0.7l0,0l0,0L539.8,390.6z
	 M526.6,563.4l1.8,0.9l0,0L526.6,563.4z M505.6,584.4l0.8,1.8l0,0l0,0L505.6,584.4z M475,591l-0.1-2l0,0l0,0L475,591z M393.4,592.2
	h-2v2h2V592.2z M393.4,519v-2h-2v2H393.4z M415.6,521c8.6,0,15.5-1.2,20.7-3.8l-1.8-3.6c-4.4,2.2-10.7,3.4-18.9,3.4V521z
	 M436.4,517.1c5.2-2.8,8.5-8.9,10.6-17.5l-3.9-0.9c-2,8.2-5,12.9-8.6,14.9L436.4,517.1z M447,499.6c1.6-8.6,2.4-22.2,2.4-40.6h-4
	c0,18.4-0.8,31.6-2.4,39.8L447,499.6z M449.4,459v-58.8h-4V459H449.4z M449.4,400.2c0-15,2.4-27.9,7-38.8l-3.7-1.6
	c-4.9,11.5-7.4,25-7.4,40.4H449.4z M456.5,361.3c4.3-10.6,9.4-19.2,15.2-25.8l-3-2.6c-6.2,7-11.5,16-16,27L456.5,361.3z
	 M471.7,335.5c5.9-6.7,11.4-11.8,16.4-15.3l-2.3-3.3c-5.4,3.7-11.1,9-17.2,15.9L471.7,335.5z M488.2,317c-4.2-3.1-9.3-8-15.3-14.7
	l-3,2.6c6,6.8,11.4,12,15.9,15.3L488.2,317z M472.8,302.2c-6.2-6.2-11.7-14-16.4-23.5l-3.6,1.8c4.9,9.8,10.6,17.9,17.2,24.5
	L472.8,302.2z M456.4,278.7c-4.6-8.9-7-19-7-30.3h-4c0,11.9,2.5,22.6,7.4,32.1L456.4,278.7z M449.4,248.4v-72h-4v72H449.4z
	 M449.4,176.4c0-18-0.8-31.4-2.4-40l-3.9,0.7c1.6,8.2,2.4,21.2,2.4,39.2H449.4z M446.9,136.3c-2-8.6-5.4-14.7-10.6-17.5l-1.9,3.5
	c3.6,2,6.7,6.7,8.6,14.9L446.9,136.3z M436.3,118.8c-5.2-2.6-12.1-3.8-20.7-3.8v4c8.2,0,14.5,1.2,18.9,3.4L436.3,118.8z M415.6,115
	h-22.2v4h22.2V115z M395.4,117V43.8h-4V117H395.4z M393.4,45.8h47.4v-4h-47.4V45.8z M440.8,45.8c11.2,0,22.4,0.2,33.5,0.6l0.1-4
	c-11.2-0.4-22.4-0.6-33.7-0.6V45.8z M474.3,46.4c10.6,0.4,20.3,2.5,29.3,6.4l1.6-3.7c-9.4-4.1-19.7-6.4-30.7-6.8L474.3,46.4z
	 M503.7,52.8c8.7,3.4,15.7,10,21.2,20.1l3.5-1.9c-5.8-10.7-13.5-18.1-23.2-21.9L503.7,52.8z M524.8,72.9c5,9.6,7.6,23.8,7.6,42.9h4
	c0-19.3-2.6-34.3-8-44.7L524.8,72.9z M532.4,115.8v99h4v-99H532.4z M532.4,214.8c0,12.2,1.8,23.6,5.5,34.3l3.8-1.3
	c-3.5-10.2-5.3-21.1-5.3-32.9H532.4z M537.9,249c3.7,11.1,9.3,20.2,16.7,27.2l2.7-2.9c-6.9-6.5-12.2-15-15.7-25.6L537.9,249z
	 M554.6,276.2c7.6,7.2,17.1,10.7,28.4,10.7v-4c-10.3,0-18.8-3.2-25.6-9.7L554.6,276.2z M581,285v69.6h4V285H581z M582.9,352.6
	c-11.2,0.4-20.7,4-28.3,10.7l2.7,3c6.8-6.1,15.3-9.3,25.7-9.7L582.9,352.6z M554.6,363.3c-7.5,7-13,15.9-16.7,26.6l3.8,1.3
	c3.5-10.1,8.7-18.4,15.7-25L554.6,363.3z M537.9,390c-3.7,11-5.5,22.6-5.5,34.8h4c0-11.8,1.8-23,5.3-33.6L537.9,390z M532.4,424.8
	v94.8h4v-94.8H532.4z M532.4,519.6c0,19.1-2.6,33.3-7.6,42.9l3.5,1.8c5.4-10.4,8-25.4,8-44.7H532.4z M524.8,562.5
	c-5,9.7-11.7,16.3-20.1,20.1l1.7,3.6c9.3-4.2,16.6-11.6,21.9-21.9L524.8,562.5z M504.8,582.6c-8.9,3.9-18.9,6-29.9,6.4l0.1,4
	c11.4-0.4,21.9-2.7,31.3-6.8L504.8,582.6z M474.9,589c-11.2,0.8-22.5,1.2-34.1,1.2v4c11.6,0,23.1-0.4,34.3-1.2L474.9,589z
	 M440.8,590.2h-47.4v4h47.4V590.2z M395.4,592.2V519h-4v73.2H395.4z M393.4,521h22.2v-4h-22.2V521z"/>
</svg>
