<?xml version="1.0" encoding="utf-8"?>
<!-- Generator: Adobe Illustrator 27.3.1, SVG Export Plug-In . SVG Version: 6.00 Build 0)  -->
<svg version="1.1" id="Layer_1" xmlns="http://www.w3.org/2000/svg" xmlns:xlink="http://www.w3.org/1999/xlink" x="0px" y="0px"
	 viewBox="0 0 82 73" style="enable-background:new 0 0 82 73;" xml:space="preserve">
<style type="text/css">
	.st0{fill:#986DFF;}
</style>
<path class="st0" d="M22.6,9c-1,0-1.8,0.1-2.4,0.4c-0.5,0.3-0.9,0.9-1.2,1.9c-0.2,1-0.3,2.6-0.3,4.8v7.1c0,1.8-0.3,3.4-0.9,4.8
	c-0.5,1.3-1.2,2.4-1.9,3.2s-1.4,1.4-2,1.9c0.5,0.4,1.2,1,1.9,1.8c0.8,0.8,1.4,1.7,2,2.9c0.6,1.1,0.9,2.4,0.9,3.7v8.6
	c0,2.2,0.1,3.7,0.3,4.8c0.2,1,0.6,1.7,1.2,1.9c0.6,0.3,1.4,0.4,2.4,0.4h2.7V66h-5.7c-1.3,0-2.7,0-4-0.1c-1.3,0-2.5-0.3-3.6-0.8
	c-1.1-0.4-2-1.3-2.7-2.5c-0.6-1.2-0.9-3-0.9-5.3V45.5c0-1.4-0.2-2.8-0.6-4c-0.4-1.3-1.1-2.4-1.9-3.2c-0.9-0.8-1.9-1.2-3.2-1.2v-8.4
	c1.3,0,2.4-0.5,3.2-1.2c0.9-0.8,1.5-1.8,1.9-3.1c0.4-1.3,0.6-2.7,0.6-4.1V8.9c0-2.3,0.3-4.1,0.9-5.3c0.6-1.2,1.5-2,2.5-2.5
	c1.1-0.5,2.3-0.7,3.7-0.8c1.3-0.1,2.7-0.1,4.1-0.1h5.7V9H22.6z M41.4,57.2c1,0,1.8-0.1,2.4-0.4c0.5-0.3,0.9-0.9,1.2-1.9
	c0.2-1,0.3-2.6,0.3-4.8V43c0-1.8,0.3-3.4,0.9-4.8c0.5-1.3,1.2-2.4,1.9-3.2c0.7-0.8,1.4-1.4,2-1.9c-0.5-0.4-1.2-1-1.9-1.8
	c-0.8-0.8-1.4-1.7-2-2.9c-0.6-1.1-0.9-2.4-0.9-3.7v-8.6c0-2.2-0.1-3.7-0.3-4.8c-0.2-1-0.6-1.7-1.2-1.9C43.2,9.1,42.4,9,41.4,9h-2.7
	V0.2h5.7c1.3,0,2.7,0,4,0.1c1.3,0,2.5,0.3,3.6,0.8c1.1,0.4,2,1.3,2.7,2.5c0.6,1.2,0.9,3,0.9,5.3v11.9c0,1.4,0.2,2.8,0.6,4
	c0.4,1.3,1.1,2.4,1.9,3.2c0.9,0.8,1.9,1.2,3.2,1.2v8.4c-1.3,0-2.4,0.5-3.2,1.2c-0.9,0.8-1.5,1.8-1.9,3.1c-0.4,1.3-0.6,2.7-0.6,4.1
	v11.4c0,2.3-0.3,4.1-0.9,5.3c-0.6,1.2-1.5,2-2.5,2.5c-1.1,0.5-2.3,0.7-3.7,0.8C47.2,66,45.9,66,44.5,66h-5.7v-8.8H41.4z"/>
</svg>
